<svg width="236" height="75" viewBox="0 0 236 75" fill="none" xmlns="http://www.w3.org/2000/svg">
<path d="M102.442 57.4684H93.9907V17.5298H107.738L116.955 44.9516H118.186L127.787 17.5298H141.23V57.4684H132.779V27.818H131.549L121.101 57.4684H113.649L103.664 27.818H102.434V57.4684H102.442Z" fill="white"/>
<path d="M167.654 58.2361C163.915 58.2361 160.561 57.3655 157.589 55.6241C154.618 53.8349 152.285 51.3747 150.6 48.2515C148.962 45.0803 148.14 41.4938 148.14 37.5C148.14 33.5061 148.962 29.9436 150.6 26.8204C152.293 23.6493 154.618 21.189 157.589 19.4477C160.561 17.6585 163.915 16.7559 167.654 16.7559C170.985 16.7559 173.924 17.4748 176.488 18.9046C179.052 20.2864 181.145 21.9798 182.782 23.9768L184.628 17.5227H191.233V57.4613H184.628L182.782 51.0072C181.145 53.0042 179.044 54.7215 176.488 56.1513C173.924 57.5332 170.985 58.2281 167.654 58.2281V58.2361ZM169.802 50.3283C173.541 50.3283 176.56 49.1541 178.868 46.7977C181.225 44.3934 182.399 41.2941 182.399 37.508C182.399 33.7218 181.217 30.6465 178.868 28.2901C176.56 25.8858 173.541 24.6797 169.802 24.6797C166.064 24.6797 163.117 25.8858 160.816 28.2901C158.516 30.6465 157.357 33.7138 157.357 37.508C157.357 41.3021 158.508 44.3934 160.816 46.7977C163.125 49.1541 166.12 50.3283 169.802 50.3283Z" fill="white"/>
<path d="M206.53 57.4684H196.545L209.221 37.0358L198.007 17.5298H207.991L215.444 30.9731H216.906L224.742 17.5298H234.495L223.28 36.5006L235.956 57.4684H225.66L217.137 42.3397H215.676L206.538 57.4684H206.53Z" fill="white"/>
<g clip-path="url(#clip0_8450_2614)">
<path d="M38.0679 0.196289C58.7196 0.196289 74.9143 16.9481 74.9143 37.6106C74.9143 58.2731 58.2054 74.6177 38.2661 74.6177C31.1893 74.6177 27.7607 73.6213 22.2375 69.7106C21.8571 69.4427 21.3375 69.5124 21.0161 69.8552C16.7679 74.3874 5.8875 77.5695 5.38929 71.382C5.38929 60.5927 0 53.5856 0 37.407C0 16.1659 17.4161 0.196289 38.0679 0.196289ZM38.6464 18.6088C28.8482 18.0945 21.1982 24.8981 19.5107 35.5374C18.1125 44.3499 20.5875 55.0909 22.7089 55.632C23.6089 55.8624 25.7679 54.207 27.3429 52.7231C27.6375 52.4445 28.0875 52.3963 28.4304 52.6106C30.8839 54.1106 33.6589 55.2356 36.7179 55.3963C46.7786 55.9213 55.6929 48.0463 56.2232 37.9856C56.7482 27.9249 48.7071 19.1284 38.6464 18.6034V18.6088Z" fill="white"/>
</g>
<defs>
<clipPath id="clip0_8450_2614">
<rect width="75" height="75" fill="white"/>
</clipPath>
</defs>
</svg>
